<?xml version="1.0" encoding="utf-8"?>
<!-- Generator: Adobe Illustrator 19.0.1, SVG Export Plug-In . SVG Version: 6.00 Build 0)  -->
<svg version="1.1" id="GameStop" xmlns="http://www.w3.org/2000/svg" xmlns:xlink="http://www.w3.org/1999/xlink" x="0px" y="0px"
	 viewBox="0 0 413.1 106.2" enable-background="new 0 0 413.1 106.2" xml:space="preserve">
<g id="GameStop_on_Light">
	<g>
		<path d="M52,90.4c2.7,0,3.7,0.4,4.6,1.1c1.2,0.9,1.8,2.5,1.8,4c0,1.6-0.7,3.2-1.7,4c-1.1,0.9-2.1,1.3-4.4,1.3h-1.9v5.4h-3.2V90.4
			H52z M50.4,98h1.9c0.7,0,1.4-0.1,2.1-0.4c0.6-0.3,1-1,1-2c0-1-0.5-1.7-1.1-2c-0.6-0.3-1.4-0.4-2.2-0.4h-1.7V98z"/>
		<path d="M63.1,98.5c0-5.1,3.9-8.3,8.3-8.3c4.8,0,8.3,3.7,8.3,8.2c0,4.5-3.5,8.2-8.3,8.2C66.5,106.5,63.1,102.7,63.1,98.5
			L63.1,98.5z M66.3,98.3c0,2.9,2.1,5.4,5.1,5.4c3.2,0,5.1-2.8,5.1-5.4c0-2.6-1.9-5.4-5.1-5.4C68.3,92.9,66.3,95.5,66.3,98.3
			L66.3,98.3z"/>
		<path d="M84.1,90.4h3.2l2.7,11.4l2.8-11.4h2.4l2.8,11.5l2.7-11.5h3.2l-4.3,15.8h-2.9L93.9,95l-2.8,11.2h-2.9L84.1,90.4z"/>
		<path d="M109.3,90.4h8.9v2.8h-5.7v3.6h5.6v2.8h-5.6v3.8h5.7v2.8h-8.9V90.4z"/>
		<path d="M125.1,90.4h4.8c2.5,0,3.9,0.4,4.7,1c1.3,0.9,2,2.5,2,4.3c0,1.2-0.3,2.2-0.9,2.9c-0.7,1-1.6,1.4-2.6,1.7l3.5,5.8h-3.3
			l-4.2-7.3h0.6c1,0,2.2-0.1,2.8-0.6c0.6-0.5,1-1.3,1-2.3c0-1-0.5-1.8-1.2-2.3c-0.6-0.4-1.3-0.5-2.2-0.5h-1.9v13h-3.2V90.4z"/>
		<path d="M152.3,93.2h-3.4v-2.8h10v2.8h-3.4v13h-3.2V93.2z"/>
		<path d="M162.7,98.5c0-5.1,3.9-8.3,8.3-8.3c4.8,0,8.3,3.7,8.3,8.2c0,4.5-3.5,8.2-8.3,8.2C166.1,106.5,162.7,102.7,162.7,98.5
			L162.7,98.5z M165.9,98.3c0,2.9,2.1,5.4,5.1,5.4c3.2,0,5.1-2.8,5.1-5.4c0-2.6-1.9-5.4-5.1-5.4C167.8,92.9,165.9,95.5,165.9,98.3
			L165.9,98.3z"/>
		<path d="M194,93.2h-3.4v-2.8h10v2.8h-3.4v13H194V93.2z"/>
		<path d="M205.5,106.2V90.4h3.2v6.3h6.1v-6.3h3.2v15.8h-3.2v-6.7h-6.1v6.7H205.5z"/>
		<path d="M224.9,90.4h8.9v2.8h-5.7v3.6h5.6v2.8h-5.6v3.8h5.7v2.8h-8.9V90.4z"/>
		<path d="M253.3,90.4c2.7,0,3.7,0.4,4.7,1.1c1.2,0.9,1.8,2.5,1.8,4c0,1.6-0.7,3.2-1.7,4c-1.1,0.9-2.1,1.3-4.4,1.3h-1.9v5.4h-3.2
			V90.4H253.3z M251.7,98h1.9c0.7,0,1.4-0.1,2.1-0.4c0.6-0.3,1-1,1-2c0-1-0.5-1.7-1.1-2c-0.6-0.3-1.4-0.4-2.2-0.4h-1.7V98z"/>
		<path d="M265.2,90.4h3.2v13h5.2v2.8h-8.4V90.4z"/>
		<path d="M280.1,106.2h-3.5l6.4-15.8h2.8l6.2,15.8h-3.5l-1.2-3.1h-6.2L280.1,106.2z M284.3,94.2l-2.2,6.4h4.5L284.3,94.2z"/>
		<path d="M298.8,100.6L294,90.4h3.4l3,7.2l3-7.2h3.4l-4.8,10.1v5.7h-3.2V100.6z"/>
		<path d="M311.8,90.4h8.8v2.8h-5.7v3.6h5.6v2.8h-5.6v3.8h5.7v2.8h-8.8V90.4z"/>
		<path d="M327.6,90.4h4.8c2.5,0,3.9,0.4,4.7,1c1.3,0.9,2,2.5,2,4.3c0,1.2-0.3,2.2-0.9,2.9c-0.7,1-1.6,1.4-2.6,1.7l3.5,5.8h-3.3
			l-4.2-7.3h0.6c1,0,2.2-0.1,2.8-0.6c0.6-0.5,1-1.3,1-2.3c0-1-0.5-1.8-1.2-2.3c-0.6-0.4-1.3-0.5-2.2-0.5h-1.9v13h-3.2V90.4z"/>
		<path d="M347.8,101.3c0.1,2.1,1.5,2.5,2.2,2.5c1.2,0,2.2-1,2.2-2.1c0-1.3-1.1-1.7-3.3-2.6c-1.2-0.4-3.9-1.4-3.9-4.4
			c0-3,2.7-4.7,5.2-4.7c2.1,0,4.9,1.1,5,4.6H352c-0.1-0.7-0.4-1.9-2-1.9c-1,0-1.9,0.7-1.9,1.8c0,1.2,0.8,1.5,3.5,2.6
			c2.4,1,3.8,2.2,3.8,4.4c0,2.5-1.6,4.9-5.3,4.9c-3.6,0-5.4-2.2-5.4-5.2H347.8z"/>
	</g>
	<g>
		<path d="M362.1,90c1.3,0,2.4,1,2.4,2.4c0,1.4-1.1,2.4-2.4,2.4c-1.3,0-2.4-1-2.4-2.4C359.7,91,360.8,90,362.1,90z M362.1,94.4
			c1.1,0,2-0.9,2-2c0-1.1-0.8-2-2-2c-1.1,0-2,0.9-2,2C360.2,93.5,361,94.4,362.1,94.4z M361.2,91h1.1c0.7,0,1,0.3,1,0.8
			c0,0.5-0.3,0.7-0.7,0.8l0.8,1.2h-0.5l-0.8-1.2h-0.5v1.2h-0.4V91z M361.6,92.2h0.4c0.4,0,0.7,0,0.7-0.5c0-0.4-0.3-0.4-0.6-0.4h-0.6
			V92.2z"/>
	</g>
	<g>
		<path d="M78.2,54.1c0,2.7-0.2,4.4-0.5,5c-0.4,0.6-1.1,0.9-2.3,0.9c-1.3,0-2.1-0.4-2.5-1.2c-0.4-0.8-0.6-2.6-0.6-5.4
			c0-2.4,0.2-4.3,0.7-5.5c0.5-1.3,2.3-2.9,5.3-4.8V54.1z M72.1,30c0-3,0.2-4.9,0.5-5.6c0.3-0.7,1.1-1.1,2.4-1.1
			c1.1,0,1.9,0.4,2.4,1.3c0.5,0.9,0.7,2.7,0.7,5.5c0,2.2-0.2,3.7-0.7,4.5c-0.4,0.7-3.9,2.2-10.2,4.3c-6,2-9.7,3.7-11.2,5.1
			c-1.5,1.5-2.3,4.2-2.3,8.2v4.4c0,5.4,1.4,8.9,4.2,10.5c2.8,1.6,5.9,2.4,9.3,2.4c2.6,0,4.8-0.5,6.7-1.4c1.9-1,3.4-2.4,4.6-4.3v4.8
			h18.9v-27c0-8.9-0.3-14.8-1-17.6c-0.7-2.8-2.7-5.2-6-7.2c-3.3-2-8.3-2.9-14.9-2.9c-5.5,0-9.9,0.9-13.4,2.6c-3.4,1.7-5.7,3.7-6.9,6
			c-1.1,2.3-1.7,4-1.7,8.2V33h18.3V30z"/>
		<path d="M124,14.8l0,5.1c1.5-2,3.3-3.6,5.4-4.6c2.1-1,4.5-1.5,7.2-1.5c5.2,0,9.3,2,12.3,6.1c1.6-2,3.5-3.6,5.5-4.6
			c2.1-1,4.3-1.5,6.8-1.5c3.3,0,6,0.7,8.2,2c2.2,1.4,3.6,3,4.2,5c0.6,2,0.9,5.1,0.9,9.6v38.2h-18.9V33.5c0-4.6-0.2-7.4-0.5-8.5
			c-0.4-1.1-1.2-1.7-2.5-1.7c-1.4,0-2.2,0.5-2.6,1.6c-0.4,1.1-0.6,3.9-0.6,8.5v35.1h-18.9V34.4c0-5.3-0.2-8.4-0.5-9.5
			c-0.3-1.1-1.1-1.6-2.5-1.6c-0.9,0-1.6,0.3-2.2,0.8c-0.6,0.6-0.9,1.2-1,2c-0.1,0.8-0.1,2.5-0.1,5.1v37.2H105V14.8H124z"/>
		<path d="M200,34.3v-4.4c0-3,0.2-4.9,0.5-5.6c0.3-0.7,1.2-1,2.6-1c1.1,0,1.8,0.4,2.2,1.2c0.4,0.8,0.5,2.6,0.5,5.4v4.4H200z
			 M225.3,35.5c0-5.2-0.7-9.3-2.1-12.2c-1.4-2.9-3.9-5.2-7.5-6.9c-3.6-1.7-8.1-2.6-13.5-2.6c-4.5,0-8.4,0.7-11.9,2.2
			c-3.4,1.4-5.9,3.5-7.4,6.2c-1.5,2.7-2.3,6.4-2.3,11.1V49c0,4,0.3,7.1,1,9.2c0.7,2.1,1.9,4,3.6,5.8c1.7,1.7,4.2,3.1,7.4,4.1
			c3.2,1,6.8,1.5,10.9,1.5c4.2,0,7.8-0.5,10.6-1.5c2.8-1,5.1-2.5,7-4.5c1.8-2,3-3.9,3.5-5.7c0.5-1.8,0.8-4.3,0.8-7.6V47h-18.4v6.3
			c0,2.7-0.3,4.4-0.8,5.4c-0.5,0.9-1.5,1.4-3,1.4c-1.2,0-2-0.3-2.4-1c-0.4-0.7-0.6-2.3-0.6-4.7V42.6h25.3V35.5z"/>
		<path fill="#EE3124" d="M302.9,6.1v7.3h6.2v6.8h-6.2v33.1c0,3.5,0.2,5.5,0.7,5.9c0.4,0.4,2.3,0.6,5.5,0.6v8.7h-7.9
			c-4.4,0-6.5-0.1-8.4-0.4c-1.9-0.3-3.6-1-5-2.1c-1.4-1.1-2.3-2.4-2.7-3.9c-0.4-1.4-0.5-4.8-0.5-10.2V20.2h-3.8v-6.8h3.8V6.1H302.9z
			"/>
		<path fill="#EE3124" d="M337.6,54.4c0,2.3-0.2,3.8-0.6,4.5c-0.4,0.7-1.2,1-2.3,1c-1.1,0-1.9-0.4-2.3-1.2c-0.4-0.8-0.6-2.4-0.6-4.9
			V29.6c0-2.8,0.2-4.5,0.6-5.2c0.4-0.7,1.2-1.1,2.4-1.1c1.2,0,2,0.4,2.3,1.1c0.4,0.7,0.5,2.4,0.5,5.2V54.4z M356.1,25.1
			c-0.6-1.9-1.8-3.7-3.5-5.4c-1.7-1.8-4.1-3.2-7.3-4.3c-3.1-1.1-6.9-1.6-11.3-1.6c-5.2,0-9.5,0.8-12.8,2.5c-3.3,1.7-5.7,3.9-6.9,6.8
			c-1.3,2.8-1.9,6.7-1.9,11.7v13.8c0,4.6,0.4,8,1.1,10.3c0.7,2.3,1.9,4.2,3.5,5.8c1.7,1.6,4,2.8,7,3.6c3,0.8,6.6,1.2,10.9,1.2
			c3.9,0,7.3-0.5,10.3-1.4c3-0.9,5.4-2.4,7.3-4.3c1.9-2,3.1-4.1,3.7-6.3c0.6-2.3,0.9-5.8,0.9-10.7V33.7
			C357.1,29.8,356.7,27,356.1,25.1"/>
		<path fill="#EE3124" d="M274.4,37.5c-2.4-3-8-6.9-17-11.6c-3.1-1.6-5.1-3-5.7-4.1c-0.7-1.1-1.1-2.8-1.1-5.1c0-1.8,0.3-3.1,0.9-3.9
			c0.6-0.9,1.5-1.3,2.8-1.3c1.1,0,1.9,0.3,2.4,1c0.5,0.6,0.7,2.1,0.7,4.5v5h18.8v-2.7c0-5.4-0.6-9.2-1.8-11.5
			c-1.2-2.2-3.7-4.1-7.4-5.6c-3.7-1.5-8.2-2.2-13.4-2.2c-4.8,0-8.9,0.7-12.3,2c-3.4,1.3-5.9,3.2-7.4,5.6c-1.5,2.4-2.3,6.2-2.3,11.4
			c0,3.6,0.5,6.5,1.6,8.9c1.1,2.3,2.4,4.1,4.1,5.4c1.6,1.3,5,3.4,10,6.3c5,2.9,8.2,5,9.5,6.2c1.2,1.2,1.9,3.9,1.9,7.8
			c0,1.8-0.3,3.2-1,4.1c-0.7,0.9-1.7,1.4-3,1.4c-1.3,0-2.3-0.4-2.8-1.1c-0.5-0.7-0.8-2.4-0.8-4.9v-4.8h-18.8v2.4
			c0,5.1,0.6,7.6,1.8,10.4c1.2,2.8,3.7,5,7.5,6.8c3.8,1.8,8.5,2.7,13.9,2.7c4.9,0,9.3-0.8,13-2.3c3.7-1.5,6.2-3.5,7.5-5.8
			c1.3-2.3,1.9-5.8,1.9-10.7C277.9,45.3,276.7,40.5,274.4,37.5"/>
		<path fill="#EE3124" d="M387.4,53.4c0,2.9-0.2,4.7-0.5,5.4c-0.3,0.7-1.1,1.1-2.3,1.1c-1.3,0-2.1-0.4-2.5-1.2
			c-0.4-0.8-0.6-2.8-0.6-6.1V30.4c0-3.1,0.2-5.1,0.5-5.9c0.4-0.8,1.2-1.2,2.4-1.2c1.3,0,2.1,0.4,2.4,1.1c0.3,0.7,0.4,2.7,0.4,6V53.4
			z M363.8,14.2V82h17.8V63.7c1.7,1.9,3.6,3.3,5.7,4.2c2.1,0.9,4.3,1.4,6.7,1.4c3,0,5.6-0.6,7.8-1.8c2.1-1.2,3.6-2.9,4.3-4.9
			c0.7-2.1,1-5.5,1-10.4V29.6c0-4.2-0.3-7.3-0.8-9c-0.5-1.8-1.9-3.3-4.1-4.7c-2.2-1.4-4.8-2-7.8-2c-2.5,0-4.8,0.5-6.9,1.4
			c-2.1,0.9-4,2.4-5.8,4.3l0-5.4H363.8z"/>
		<path d="M47.2,26.4H26.9v-6.1c0-3.9-0.2-6.3-0.6-7.3c-0.4-1-1.3-1.5-2.8-1.5c-1.3,0-2.1,0.4-2.6,1.3c-0.5,0.9-0.7,3-0.7,6.4v32.5
			c0,3,0.2,5,0.7,6c0.4,1,1.4,1.4,2.7,1.4c1.5,0,2.5-0.5,3-1.6c0.5-1.1,0.8-3.2,0.8-6.4v-8h-4v-8.7h23.7v34.8H34l-1.5-4.8
			c-1.4,2.1-3.1,3.6-5.2,4.7c-2.1,1-4.6,1.5-7.5,1.5c-3.4,0-6.6-0.7-9.6-2.1c-3-1.4-5.2-3.2-6.8-5.3C1.9,61,1,58.8,0.6,56.5
			C0.2,54.1,0,50.6,0,46V25.9c0-6.5,0.4-11.2,1.2-14.1C2,8.8,4.3,6.1,8.1,3.7C11.9,1.2,16.9,0,22.9,0c6,0,10.9,1.1,14.8,3.2
			c3.9,2.1,6.5,4.6,7.7,7.5c1.2,2.9,1.8,7.2,1.8,12.7V26.4z"/>
		<g>
			<path fill="#EE3124" d="M410.7,14c1.3,0,2.4,1,2.4,2.4c0,1.4-1.1,2.4-2.4,2.4c-1.3,0-2.4-1-2.4-2.4C408.3,15,409.4,14,410.7,14z
				 M410.7,18.4c1.1,0,2-0.9,2-2c0-1.1-0.8-2-2-2c-1.1,0-2,0.9-2,2C408.8,17.5,409.6,18.4,410.7,18.4z M409.8,14.9h1.1
				c0.7,0,1,0.3,1,0.8c0,0.5-0.3,0.7-0.7,0.8l0.8,1.2h-0.5l-0.8-1.2h-0.5v1.2h-0.4V14.9z M410.2,16.2h0.4c0.4,0,0.7,0,0.7-0.5
				c0-0.4-0.3-0.4-0.6-0.4h-0.6V16.2z"/>
		</g>
	</g>
</g>
</svg>
