<?xml version="1.0" encoding="utf-8"?>
<!-- Generator: Adobe Illustrator 19.0.1, SVG Export Plug-In . SVG Version: 6.00 Build 0)  -->
<svg version="1.1" id="Layer_1" xmlns="http://www.w3.org/2000/svg" xmlns:xlink="http://www.w3.org/1999/xlink" x="0px" y="0px"
	 viewBox="482 -182 1000 400" style="enable-background:new 482 -182 1000 400;" xml:space="preserve">
<style type="text/css">
	.st0{fill:#1F70C1;}
</style>
<path class="st0" d="M482-182v27.4h194.6V-182H482z M704.2-182v27.4h277.4c0,0-28.3-27.4-65.9-27.4H704.2z M1036-182v27.4h167.8
	l-10-27.4H1036z M1324.1-182l-10,27.4h166.3V-182H1324.1z M482-128.8v27.4h194.6v-27.4H482z M704.2-128.7v27.3h309.6
	c0,0-3.6-21.1-9.9-27.3H704.2z M1036-128.7v27.3h186.2l-9.2-27.3H1036z M1304.2-128.7l-9.2,27.3h185.5v-27.3H1304.2z M537.9-75.6
	v27.4h84.3v-27.4H537.9z M760.2-75.6v27.4h84.3v-27.4H760.2z M926.5-75.6v27.4h84.3c0,0,5.4-14.5,5.4-27.4H926.5z M1092-75.6v27.4
	h149.5l-10-27.4H1092z M1285.9-75.6l-10,27.4h150.2v-27.4H1285.9z M537.9-22.3V5.1h84.3v-27.4H537.9z M760.2-22.3V5.1h215.3
	c0,0,18-14,23.8-27.4H760.2z M1092-22.3V5.1h84.3v-15.2l5.4,15.2H1336l5.7-15.2V5.1h84.3v-27.4h-158.2l-8.4,23.2l-8.4-23.2H1092z
	 M537.9,30.9v27.4h84.3V30.9H537.9z M760.2,30.9v27.4h239.1c-5.7-13.3-23.8-27.4-23.8-27.4H760.2z M1092,30.9v27.4h84.3V30.9H1092z
	 M1191.6,30.9l10.2,27.4h115.8l9.7-27.4H1191.6z M1341.8,30.9v27.4h84.3V30.9H1341.8z M537.9,84.1v27.4h84.3V84.1H537.9z
	 M760.2,84.1v27.4h84.3V84.1H760.2z M926.5,84.1v27.4h89.6c0-12.9-5.4-27.4-5.4-27.4H926.5z M1092,84.1v27.4h84.3V84.1H1092z
	 M1210.7,84.1l9.9,27.4h77.6l10-27.4H1210.7z M1341.8,84.1v27.4h84.3V84.1H1341.8z M483.5,137.4v27.4h194.6v-27.4H483.5z
	 M704.2,137.4v27.4h299.6c6.3-6.3,9.9-27.4,9.9-27.4H704.2z M1037.5,137.4v27.4h138.7v-27.4H1037.5z M1229.9,137.4l10.2,27.4h39.5
	l9.5-27.4H1229.9z M1341.8,137.4v27.4H1482v-27.4H1341.8z M483.5,190.6V218h194.6v-27.4H483.5z M704.2,190.6V218h211.5
	c37.5,0,65.9-27.3,65.9-27.3H704.2z M1037.5,190.6V218h138.7v-27.4H1037.5z M1249.1,190.6l9.8,27.3l1.7,0l9.9-27.3H1249.1z
	 M1341.8,190.6V218H1482v-27.4H1341.8z"/>
</svg>
