<?xml version="1.0" encoding="utf-8"?>
<!-- Generator: Adobe Illustrator 19.0.1, SVG Export Plug-In . SVG Version: 6.00 Build 0)  -->
<svg version="1.1" id="Layer_1" xmlns="http://www.w3.org/2000/svg" xmlns:xlink="http://www.w3.org/1999/xlink" x="0px" y="0px"
	 viewBox="0 0 75.8 82" enable-background="new 0 0 75.8 82" xml:space="preserve">
<path fill="#046799" d="M70.2,5.7H5.6C2.5,5.7,0,8.2,0,11.2v65.3c0,3,2.5,5.5,5.6,5.5h64.6c3.1,0,5.6-2.4,5.6-5.5V11.2
	C75.8,8.2,73.3,5.7,70.2,5.7z M23,69.6H11.5V35.1H23V69.6z M17.2,30.4L17.2,30.4L17.2,30.4c-3.9,0-6.4-2.6-6.4-5.9
	c0-3.4,2.6-5.9,6.5-5.9c3.9,0,6.3,2.6,6.4,5.9C23.7,27.8,21.2,30.4,17.2,30.4z M64.2,69.6H52.8V51.1c0-4.6-1.7-7.8-5.8-7.8
	c-3.2,0-5,2.1-5.9,4.2c-0.3,0.7-0.4,1.8-0.4,2.8v19.2H29.3c0,0,0.2-31.2,0-34.4h11.4V40c1.5-2.3,4.2-5.7,10.3-5.7
	c7.5,0,13.2,4.9,13.2,15.5V69.6z"/>
</svg>
